<svg xmlns="http://www.w3.org/2000/svg" version="1.1" xmlns:xlink="http://www.w3.org/1999/xlink" viewBox="0 0 200 200" width="200" height="200"><rect width="200" height="200" fill="url('#gradient')"></rect><defs><linearGradient id="gradient" gradientTransform="rotate(45 0.5 0.5)"><stop offset="0%" stop-color="#0f172a"></stop><stop offset="100%" stop-color="#0f172a"></stop></linearGradient></defs><g><g fill="#38bdf8" transform="matrix(4.511013215859031,0,0,4.511013215859031,7.974943726729705,123.86622685377819)" stroke="#d6ce5c" stroke-width="0.2"><path d="M9.08-7.79L3.74-5.95L9.08-4.15L9.08-1.15L0.45-4.67L0.45-7.27L9.08-10.78L9.08-7.79ZM16.65-2.97L16.65-2.97Q16.65-3.39 16.21-3.64Q15.77-3.90 14.54-4.17Q13.31-4.44 12.51-4.89Q11.71-5.33 11.29-5.97Q10.87-6.60 10.87-7.42L10.87-7.42Q10.87-8.88 12.07-9.82Q13.27-10.76 15.21-10.76L15.21-10.76Q17.30-10.76 18.57-9.81Q19.84-8.87 19.84-7.32L19.84-7.32L16.54-7.32Q16.54-8.59 15.21-8.59L15.21-8.59Q14.69-8.59 14.34-8.31Q13.98-8.02 13.98-7.59L13.98-7.59Q13.98-7.15 14.41-6.88Q14.84-6.60 15.79-6.43Q16.73-6.25 17.44-6.01L17.44-6.01Q19.82-5.19 19.82-3.07L19.82-3.07Q19.82-1.62 18.54-0.71Q17.26 0.20 15.21 0.20L15.21 0.20Q13.86 0.20 12.79-0.29Q11.73-0.78 11.13-1.62Q10.54-2.46 10.54-3.39L10.54-3.39L13.61-3.39Q13.63-2.66 14.10-2.32Q14.57-1.98 15.30-1.98L15.30-1.98Q15.98-1.98 16.31-2.26Q16.65-2.53 16.65-2.97ZM26.89-2.97L26.89-2.97Q26.89-3.39 26.46-3.64Q26.02-3.90 24.79-4.17Q23.55-4.44 22.75-4.89Q21.95-5.33 21.53-5.97Q21.11-6.60 21.11-7.42L21.11-7.42Q21.11-8.88 22.31-9.82Q23.52-10.76 25.46-10.76L25.46-10.76Q27.55-10.76 28.82-9.81Q30.09-8.87 30.09-7.32L30.09-7.32L26.79-7.32Q26.79-8.59 25.45-8.59L25.45-8.59Q24.93-8.59 24.58-8.31Q24.23-8.02 24.23-7.59L24.23-7.59Q24.23-7.15 24.66-6.88Q25.09-6.60 26.03-6.43Q26.97-6.25 27.69-6.01L27.69-6.01Q30.07-5.19 30.07-3.07L30.07-3.07Q30.07-1.62 28.78-0.71Q27.50 0.20 25.46 0.20L25.46 0.20Q24.10 0.20 23.04-0.29Q21.97-0.78 21.38-1.62Q20.78-2.46 20.78-3.39L20.78-3.39L23.86-3.39Q23.88-2.66 24.35-2.32Q24.81-1.98 25.55-1.98L25.55-1.98Q26.22-1.98 26.56-2.26Q26.89-2.53 26.89-2.97ZM31.77-4.13L37.08-5.98L31.77-7.78L31.77-10.77L40.35-7.26L40.35-4.66L31.77-1.14L31.77-4.13Z"></path></g></g></svg>